<?xml version="1.0" encoding="UTF-8" standalone="no"?>
<!DOCTYPE svg PUBLIC "-//W3C//DTD SVG 1.1//EN" "http://www.w3.org/Graphics/SVG/1.1/DTD/svg11.dtd">
<svg width="100%" height="100%" viewBox="0 0 981 468" version="1.1" xmlns="http://www.w3.org/2000/svg" xmlns:xlink="http://www.w3.org/1999/xlink" xml:space="preserve" xmlns:serif="http://www.serif.com/" style="fill-rule:evenodd;clip-rule:evenodd;stroke-linecap:square;stroke-miterlimit:1.5;" fill="#2e5b28">
    <g transform="matrix(1,0,0,1,3559.45221,-1942.156207)">
        <g>
            <g transform="matrix(2.709887,0,0,0.627051,-7034.483592,1625.51265)">
                <path d="M1349.706,1189.931L1349.706,1242.365L1351.537,1244.324L1351.537,1249.735L1345.043,1249.735L1345.043,1244.324L1346.873,1242.365L1346.873,1218.667L1340.14,1218.667L1340.14,1242.365L1341.97,1244.324L1341.97,1249.735L1335.476,1249.735L1335.476,1244.324L1337.307,1242.365L1337.307,1189.931L1335.476,1187.972L1335.476,1182.561L1341.97,1182.561L1341.97,1187.972L1340.14,1189.931L1340.14,1211.856L1346.873,1211.856L1346.873,1189.931L1345.043,1187.972L1345.043,1182.561L1351.537,1182.561L1351.537,1187.972L1349.706,1189.931Z" style="fill-rule:nonzero;"/>
                <path d="M1373.024,1227.53L1371.259,1227.53L1370.888,1218.76L1367.903,1218.76L1367.903,1242.738L1373.896,1242.738L1374.506,1228.93L1376.423,1228.93L1376.423,1249.735L1363.021,1249.735L1363.021,1244.324L1365.07,1242.365L1365.07,1189.931L1363.021,1187.972L1363.021,1182.561L1375.944,1182.561L1375.944,1202.34L1374.157,1202.34L1373.525,1189.371L1367.903,1189.371L1367.903,1211.763L1370.888,1211.763L1371.259,1202.9L1373.024,1202.9L1373.024,1227.53Z" style="fill-rule:nonzero;"/>
                <path d="M1399.588,1214.095C1399.327,1214.966 1399.033,1215.806 1398.706,1216.614C1398.379,1217.423 1397.961,1218.076 1397.453,1218.574C1397.525,1218.885 1397.642,1219.429 1397.802,1220.206C1397.961,1220.984 1398.114,1221.901 1398.259,1222.959L1400.961,1242.551L1402.901,1244.324L1402.901,1249.735L1397.758,1249.735L1397.758,1244.324L1394.903,1220.346L1392.811,1220.346L1392.811,1242.365L1394.881,1244.324L1394.881,1249.735L1388.148,1249.735L1388.148,1244.324L1389.978,1242.365L1389.978,1189.931L1388.148,1187.972L1388.148,1182.561L1396.298,1182.561C1396.995,1182.561 1397.609,1182.84 1398.139,1183.4C1398.67,1183.96 1399.138,1184.862 1399.545,1186.106C1400.068,1187.661 1400.482,1189.729 1400.787,1192.31C1401.092,1194.892 1401.245,1197.488 1401.245,1200.101C1401.245,1202.713 1401.096,1205.279 1400.798,1207.798C1400.5,1210.317 1400.097,1212.416 1399.588,1214.095ZM1392.811,1213.536L1395.274,1213.536C1396.073,1213.536 1396.734,1212.572 1397.257,1210.643C1397.547,1209.586 1397.776,1208.171 1397.943,1206.398C1398.11,1204.626 1398.194,1202.713 1398.194,1200.66C1398.194,1198.795 1398.107,1197.1 1397.932,1195.576C1397.758,1194.052 1397.525,1192.792 1397.235,1191.797C1396.988,1190.926 1396.701,1190.304 1396.374,1189.931C1396.047,1189.558 1395.651,1189.371 1395.186,1189.371L1392.811,1189.371L1392.811,1213.536Z" style="fill-rule:nonzero;"/>
                <path d="M1426.284,1198.701C1426.284,1201.065 1426.157,1203.273 1425.902,1205.325C1425.648,1207.378 1425.303,1209.088 1424.867,1210.457C1424.432,1211.825 1423.93,1212.665 1423.364,1212.976L1423.364,1213.349C1424.497,1214.344 1425.39,1216.397 1426.044,1219.507C1426.698,1222.617 1427.025,1226.442 1427.025,1230.982C1427.025,1234.466 1426.811,1237.684 1426.382,1240.639C1425.953,1243.593 1425.412,1245.786 1424.758,1247.216C1424.352,1248.087 1423.85,1248.725 1423.255,1249.129C1422.659,1249.533 1421.824,1249.735 1420.749,1249.735L1413.579,1249.735L1413.579,1244.324L1415.41,1242.365L1415.41,1189.931L1413.579,1187.972L1413.579,1182.561L1421.555,1182.561C1423.08,1182.561 1424.257,1184.147 1425.085,1187.319C1425.463,1188.812 1425.757,1190.553 1425.968,1192.544C1426.179,1194.534 1426.284,1196.586 1426.284,1198.701ZM1420.378,1218.107L1418.243,1218.107L1418.243,1242.738L1419.986,1242.738C1420.654,1242.738 1421.192,1242.583 1421.599,1242.272C1422.005,1241.961 1422.347,1241.463 1422.623,1240.779C1423.015,1239.908 1423.335,1238.524 1423.582,1236.627C1423.829,1234.73 1423.952,1232.537 1423.952,1230.049C1423.952,1227.872 1423.858,1226.038 1423.669,1224.545C1423.48,1223.052 1423.24,1221.808 1422.95,1220.813C1422.688,1219.942 1422.354,1219.273 1421.947,1218.807C1421.54,1218.341 1421.017,1218.107 1420.378,1218.107ZM1418.243,1189.371L1418.243,1211.296L1420.313,1211.296C1421.33,1211.296 1422.078,1210.208 1422.557,1208.031C1422.775,1207.16 1422.964,1206.056 1423.124,1204.719C1423.284,1203.382 1423.364,1201.842 1423.364,1200.101C1423.364,1198.359 1423.284,1196.804 1423.124,1195.436C1422.964,1194.067 1422.775,1192.979 1422.557,1192.17C1422.122,1190.304 1421.402,1189.371 1420.4,1189.371L1418.243,1189.371Z" style="fill-rule:nonzero;"/>
                <path d="M1447.785,1242.365L1446.673,1227.904L1441.356,1227.904L1440.223,1242.365L1442.031,1244.324L1442.031,1249.735L1436.278,1249.735L1436.278,1244.324L1438.065,1242.365L1443.165,1181.628L1445.845,1181.628L1450.901,1242.365L1452.644,1244.324L1452.644,1249.735L1445.998,1249.735L1445.998,1244.324L1447.785,1242.365ZM1444.036,1193.943L1441.901,1221.093L1446.15,1221.093L1444.123,1193.943L1444.036,1193.943Z" style="fill-rule:nonzero;"/>
                <path d="M1467.899,1189.931L1467.899,1242.738L1473.172,1242.738L1473.913,1226.597L1475.766,1226.597L1475.766,1249.735L1463.017,1249.735L1463.017,1244.324L1465.066,1242.365L1465.066,1189.931L1463.017,1187.972L1463.017,1182.561L1470.165,1182.561L1470.165,1187.972L1467.899,1189.931Z" style="fill-rule:nonzero;"/>
                <path d="M1506.856,1242.365L1505.745,1227.904L1500.427,1227.904L1499.294,1242.365L1501.103,1244.324L1501.103,1249.735L1495.35,1249.735L1495.35,1244.324L1497.137,1242.365L1502.236,1181.628L1504.917,1181.628L1509.972,1242.365L1511.716,1244.324L1511.716,1249.735L1505.069,1249.735L1505.069,1244.324L1506.856,1242.365ZM1503.108,1193.943L1500.972,1221.093L1505.222,1221.093L1503.195,1193.943L1503.108,1193.943Z" style="fill-rule:nonzero;"/>
                <path d="M1526.97,1189.931L1526.97,1242.738L1532.244,1242.738L1532.985,1226.597L1534.837,1226.597L1534.837,1249.735L1522.089,1249.735L1522.089,1244.324L1524.137,1242.365L1524.137,1189.931L1522.089,1187.972L1522.089,1182.561L1529.237,1182.561L1529.237,1187.972L1526.97,1189.931Z" style="fill-rule:nonzero;"/>
                <path d="M1556.39,1242.365L1555.278,1227.904L1549.961,1227.904L1548.828,1242.365L1550.637,1244.324L1550.637,1249.735L1544.883,1249.735L1544.883,1244.324L1546.67,1242.365L1551.77,1181.628L1554.45,1181.628L1559.506,1242.365L1561.249,1244.324L1561.249,1249.735L1554.603,1249.735L1554.603,1244.324L1556.39,1242.365ZM1552.641,1193.943L1550.506,1221.093L1554.755,1221.093L1552.729,1193.943L1552.641,1193.943Z" style="fill-rule:nonzero;"/>
                <path d="M1581.429,1239.846L1585.482,1182.561L1591.235,1182.561L1591.235,1187.972L1589.405,1189.931L1589.405,1242.365L1591.235,1244.324L1591.235,1249.735L1584.981,1249.735L1584.981,1244.324L1586.572,1242.365L1586.572,1190.024L1582.606,1249.735L1579.511,1249.735L1575.632,1190.024L1575.632,1242.365L1577.223,1244.324L1577.223,1249.735L1571.731,1249.735L1571.731,1244.324L1573.562,1242.365L1573.562,1189.931L1571.731,1187.972L1571.731,1182.561L1577.572,1182.561L1581.342,1239.846L1581.429,1239.846Z" style="fill-rule:nonzero;"/>
            </g>
            <g transform="matrix(3.380166,0,0,3.399793,-6856.408859,-9014.807765)">
                <path d="M980.048,3253.507L980.048,3248.309C991.611,3248.309 1000.999,3238.976 1000.999,3227.479L1239.786,3227.479C1239.786,3238.976 1249.174,3248.309 1260.737,3248.309L1260.737,3253.507L1246.39,3255.037L1260.737,3256.398L1260.737,3260.538L1246.39,3262.068L1260.737,3263.429L1260.737,3267.569L1246.39,3269.099L1260.737,3270.46L1260.737,3274.6L1246.39,3276.13L1260.737,3277.491L1260.737,3281.631L1246.39,3283.161L1260.737,3284.522L1260.737,3288.662L1246.39,3290.192L1260.737,3291.553L1260.737,3295.693L1246.39,3297.223L1260.737,3298.584L1260.737,3302.724L1246.39,3304.254L1260.737,3305.615L1260.737,3310.8C1249.174,3310.8 1239.786,3320.133 1239.786,3331.63L1000.999,3331.63C1000.999,3320.133 991.611,3310.8 980.048,3310.8L980.048,3305.615L994.395,3304.254L980.048,3302.724L980.048,3298.584L994.395,3297.223L980.048,3295.693L980.048,3291.553L994.395,3290.192L980.048,3288.662L980.048,3284.522L994.395,3283.161L980.048,3281.631L980.048,3277.491L994.395,3276.13L980.048,3274.6L980.048,3270.46L994.395,3269.099L980.048,3267.569L980.048,3263.429L994.395,3262.068L980.048,3260.538L980.048,3256.398L994.395,3255.037L980.048,3253.507ZM1006.982,3296.826L1002.168,3298.012L1002.168,3301.285L1017.24,3301.285L1017.24,3298.012L1012.426,3296.826L1012.426,3268.886L1033.629,3301.285L1039.99,3301.285L1039.99,3265.105L1044.804,3263.919L1044.804,3260.646L1029.732,3260.646L1029.732,3263.919L1034.546,3265.105L1034.546,3290.448L1015.406,3260.646L1002.168,3260.646L1002.168,3263.919L1006.982,3265.105L1006.982,3296.826ZM1197.814,3301.85L1207.729,3275.039L1211.052,3273.966L1211.052,3270.806L1198.445,3270.806L1198.445,3273.966L1201.998,3275.039L1194.949,3295.697L1194.72,3295.697L1187.843,3274.982L1191.625,3273.91L1191.625,3270.749L1177.069,3270.749L1177.069,3273.91L1180.278,3274.982L1190.193,3301.85L1197.814,3301.85ZM1165.608,3262.226C1165.608,3263.43 1165.971,3264.399 1166.697,3265.133C1167.423,3265.867 1168.473,3266.234 1169.849,3266.234C1171.224,3266.234 1172.284,3265.857 1173.029,3265.105C1173.774,3264.352 1174.147,3263.392 1174.147,3262.226C1174.147,3261.022 1173.765,3260.043 1173,3259.291C1172.236,3258.538 1171.186,3258.162 1169.849,3258.162C1168.511,3258.162 1167.47,3258.538 1166.725,3259.291C1165.98,3260.043 1165.608,3261.022 1165.608,3262.226ZM1115.201,3289.524C1115.201,3289.524 1119.219,3287.222 1127.997,3287.222C1128.465,3287.222 1128.919,3287.189 1129.359,3287.126L1129.676,3288.077L1132.599,3296.826L1127.9,3298.012L1127.9,3301.285L1160.45,3301.285L1160.45,3298.068L1156.038,3296.996L1156.038,3257.259L1144.347,3257.259L1144.347,3260.476L1148.76,3261.549L1148.76,3296.996L1144.991,3297.912L1140.794,3296.826L1135.958,3283.461C1138.649,3280.646 1139.963,3277.28 1139.963,3277.28C1139.963,3277.28 1138.064,3278.765 1134.651,3279.85L1127.499,3260.081L1120.45,3260.081L1107.04,3296.826L1102.341,3298.012L1102.341,3301.285L1117.47,3301.285L1117.47,3298.012L1112.713,3296.826L1115.201,3289.524ZM1127.33,3280.965C1118.402,3280.965 1115.473,3288.744 1115.219,3289.47L1115.693,3288.077L1117.126,3283.957L1122.742,3267.532L1122.971,3267.532L1127.33,3280.965ZM1166.238,3275.039L1166.238,3297.052L1161.826,3298.125L1161.826,3301.285L1177.929,3301.285L1177.929,3298.125L1173.516,3297.052L1173.516,3270.806L1161.826,3270.806L1161.826,3273.966L1166.238,3275.039ZM1098.501,3274.926C1098.348,3275.415 1098.262,3275.726 1098.243,3275.857C1098.224,3275.989 1098.215,3276.187 1098.215,3276.45C1098.215,3277.278 1098.539,3278.04 1099.189,3278.736C1099.838,3279.432 1100.927,3279.78 1102.455,3279.78C1103.716,3279.78 1104.69,3279.319 1105.378,3278.397C1106.066,3277.475 1106.41,3276.45 1106.41,3275.321C1106.41,3273.778 1105.913,3272.546 1104.92,3271.624C1103.926,3270.702 1102.685,3270.241 1101.195,3270.241C1099.399,3270.241 1097.756,3270.937 1096.266,3272.33C1094.776,3273.722 1093.592,3275.697 1092.713,3278.256L1092.484,3278.256L1091.223,3270.806L1081.252,3270.806L1081.252,3273.12L1085.664,3274.192L1085.664,3297.052L1081.252,3298.125L1081.252,3301.285L1099.132,3301.285L1099.132,3298.125L1092.942,3297.052L1092.942,3288.19C1092.942,3286.234 1093.114,3284.578 1093.458,3283.223C1093.802,3281.869 1094.203,3280.552 1094.662,3279.272C1094.853,3278.745 1095.168,3278.143 1095.607,3277.466C1096.046,3276.789 1096.534,3276.196 1097.068,3275.688C1097.603,3275.18 1098.081,3274.926 1098.501,3274.926ZM1056.438,3270.806L1045.32,3270.806L1045.32,3273.966L1049.16,3275.039L1049.16,3286.666C1049.16,3289.865 1049.332,3292.424 1049.675,3294.343C1050.019,3296.262 1050.554,3297.748 1051.28,3298.802C1051.968,3299.743 1052.913,3300.486 1054.117,3301.031C1055.32,3301.577 1056.648,3301.85 1058.1,3301.85C1060.277,3301.85 1062.321,3301.295 1064.231,3300.185C1066.142,3299.075 1067.651,3297.56 1068.759,3295.641L1068.988,3295.641L1069.618,3301.85L1080.22,3301.285L1080.22,3298.125L1075.807,3297.052L1075.807,3270.806L1063.544,3270.806L1063.544,3273.966L1068.529,3275.039L1068.529,3288.416C1068.377,3291.351 1067.517,3293.515 1065.951,3294.907C1065.225,3295.547 1064.442,3296.055 1063.601,3296.431C1062.761,3296.808 1061.825,3296.996 1060.793,3296.996C1060.067,3296.996 1059.351,3296.761 1058.644,3296.29C1057.937,3295.82 1057.431,3295.133 1057.125,3294.23C1056.896,3293.515 1056.724,3292.555 1056.61,3291.351C1056.495,3290.147 1056.438,3288.341 1056.438,3285.933L1056.438,3270.806ZM1238.445,3286.836C1238.522,3285.97 1238.569,3285.34 1238.589,3284.945C1238.608,3284.55 1238.617,3284.145 1238.617,3283.731C1238.617,3279.517 1237.404,3276.215 1234.978,3273.825C1232.552,3271.436 1229.257,3270.241 1225.093,3270.241C1220.585,3270.241 1217.098,3271.68 1214.634,3274.559C1212.17,3277.438 1210.938,3281.511 1210.938,3286.779C1210.938,3288.435 1211.072,3289.978 1211.339,3291.408C1211.606,3292.838 1212.027,3294.136 1212.6,3295.302C1213.669,3297.447 1215.217,3299.075 1217.242,3300.185C1219.266,3301.295 1221.673,3301.85 1224.462,3301.85C1227.786,3301.85 1230.585,3301.191 1232.858,3299.874C1235.131,3298.557 1236.936,3296.958 1238.273,3295.077L1235.179,3292.706C1233.994,3294.211 1232.571,3295.34 1230.909,3296.093C1229.247,3296.845 1227.576,3297.221 1225.895,3297.221C1224.367,3297.221 1223.087,3296.873 1222.055,3296.177C1221.024,3295.481 1220.202,3294.493 1219.591,3293.214C1218.827,3291.521 1218.445,3289.395 1218.445,3286.836L1238.445,3286.836ZM1224.978,3274.136C1226.888,3274.136 1228.388,3274.794 1229.477,3276.111C1230.566,3277.428 1231.11,3279.31 1231.11,3281.756L1231.11,3283.223L1218.502,3283.223C1218.884,3277.165 1221.043,3274.136 1224.978,3274.136Z"/>
            </g>
            <g transform="matrix(3.468199,0,0,3.631031,-6954.698295,-9773.16514)">
                <path d="M1260.737,3247.268L1260.737,3311.841C1249.302,3311.841 1240.019,3320.708 1240.019,3331.63L1000.766,3331.63C1000.766,3320.708 991.483,3311.841 980.048,3311.841L980.048,3247.268C991.483,3247.268 1000.766,3238.401 1000.766,3227.479L1240.019,3227.479C1240.019,3238.401 1249.302,3247.268 1260.737,3247.268Z" style="fill:none;stroke:#2e5b28;stroke-width:1.17px;"/>
            </g>
        </g>
    </g>
</svg>
